<?xml version="1.0" standalone="no"?>
<!DOCTYPE svg PUBLIC "-//W3C//DTD SVG 20010904//EN"
 "http://www.w3.org/TR/2001/REC-SVG-20010904/DTD/svg10.dtd">
<svg version="1.0" xmlns="http://www.w3.org/2000/svg"
 width="270.000000pt" height="270.000000pt" viewBox="0 0 270.000000 270.000000"
 preserveAspectRatio="xMidYMid meet">
<metadata>
Created by potrace 1.11, written by Peter Selinger 2001-2013
</metadata>
<g transform="translate(0.000000,270.000000) scale(0.100000,-0.100000)"
fill="#000000" stroke="none">
<path d="M1139 2541 c0 -3 -2 -13 -4 -21 -1 -8 -10 -67 -20 -130 -10 -63 -21
-119 -26 -125 -5 -5 -36 -19 -69 -31 l-60 -22 -108 94 c-59 52 -109 94 -112
94 -3 0 -18 -13 -35 -28 -16 -15 -87 -75 -156 -133 -81 -68 -124 -110 -121
-119 3 -8 17 -33 31 -55 14 -22 44 -71 67 -110 l42 -70 -33 -60 -34 -60 -138
-1 c-171 -2 -158 0 -160 -24 -1 -11 -9 -57 -17 -102 -8 -46 -17 -94 -19 -108
-3 -14 -10 -58 -17 -98 -8 -44 -10 -76 -4 -81 5 -5 66 -27 135 -50 l126 -42
12 -72 12 -72 -29 -25 c-32 -27 -39 -33 -129 -104 -35 -27 -63 -50 -63 -52 0
-2 29 -53 65 -114 36 -61 65 -113 65 -115 0 -3 16 -29 35 -59 19 -30 35 -60
35 -66 0 -14 -3 -15 140 40 71 27 133 50 137 50 4 0 32 -22 60 -48 l53 -47
-28 -132 c-16 -73 -26 -137 -23 -141 3 -5 92 -40 198 -79 l191 -70 53 96 c95
174 78 158 159 157 84 -1 67 18 198 -233 l12 -21 122 45 c68 24 146 53 173 63
28 11 62 24 76 29 l26 9 -19 94 c-10 51 -22 113 -28 138 l-9 45 52 47 c29 26
57 47 62 48 6 0 66 -22 135 -49 95 -38 128 -47 136 -38 11 12 204 343 204 350
0 2 -50 43 -111 92 -122 97 -113 79 -94 192 l7 42 127 42 c69 23 130 45 135
50 6 5 3 46 -8 106 -10 54 -19 107 -21 118 -4 29 -25 146 -30 170 -4 20 -11
21 -150 20 l-146 0 -33 60 -34 60 74 124 c41 68 74 124 72 126 -2 1 -74 61
-161 134 -173 146 -160 140 -212 86 -5 -6 -45 -40 -87 -77 l-76 -66 -61 22
c-34 12 -65 26 -70 31 -6 6 -13 30 -16 55 -3 25 -8 54 -10 65 -1 11 -6 45 -10
75 -12 96 11 87 -225 87 -116 -1 -210 -3 -211 -6z m364 -596 c166 -41 320
-166 396 -320 46 -92 64 -176 64 -285 -1 -162 -62 -306 -180 -423 -188 -189
-468 -235 -708 -116 -373 183 -455 694 -158 985 156 153 375 212 586 159z"/>
</g>
</svg>
